<svg width="109" height="24" viewBox="0 0 109 24" fill="none" xmlns="http://www.w3.org/2000/svg">
<g filter="url(#filter0_d)">
<path d="M5.04 15.1162C4.90667 15.1162 4.79333 15.0695 4.7 14.9762C4.60667 14.8829 4.56 14.7695 4.56 14.6362V1.59621C4.56 1.44954 4.60667 1.33621 4.7 1.25621C4.79333 1.16288 4.90667 1.11621 5.04 1.11621H6.92C7.06667 1.11621 7.18 1.16288 7.26 1.25621C7.35333 1.33621 7.4 1.44954 7.4 1.59621V12.7162H13.74C13.8867 12.7162 14.0067 12.7629 14.1 12.8562C14.1933 12.9495 14.24 13.0629 14.24 13.1962V14.6362C14.24 14.7695 14.1933 14.8829 14.1 14.9762C14.0067 15.0695 13.8867 15.1162 13.74 15.1162H5.04ZM18.9611 15.3162C18.2811 15.3162 17.6544 15.1829 17.0811 14.9162C16.5211 14.6362 16.0744 14.2629 15.7411 13.7962C15.4211 13.3295 15.2611 12.8162 15.2611 12.2562C15.2611 11.3495 15.6278 10.6162 16.3611 10.0562C17.0944 9.49621 18.1011 9.11621 19.3811 8.91621L22.1211 8.51621V8.09621C22.1211 7.52288 21.9744 7.08954 21.6811 6.79621C21.3878 6.50288 20.9211 6.35621 20.2811 6.35621C19.8411 6.35621 19.4878 6.43621 19.2211 6.59621C18.9544 6.75621 18.7344 6.92288 18.5611 7.09621C18.4011 7.25621 18.2944 7.36288 18.2411 7.41621C18.1878 7.57621 18.0878 7.65621 17.9411 7.65621H16.3811C16.2611 7.65621 16.1544 7.61621 16.0611 7.53621C15.9811 7.45621 15.9411 7.34954 15.9411 7.21621C15.9544 6.88288 16.1144 6.50954 16.4211 6.09621C16.7411 5.66954 17.2278 5.30288 17.8811 4.99621C18.5344 4.67621 19.3411 4.51621 20.3011 4.51621C21.8744 4.51621 23.0211 4.86954 23.7411 5.57621C24.4611 6.28288 24.8211 7.20954 24.8211 8.35621V14.6362C24.8211 14.7695 24.7744 14.8829 24.6811 14.9762C24.6011 15.0695 24.4878 15.1162 24.3411 15.1162H22.6811C22.5478 15.1162 22.4344 15.0695 22.3411 14.9762C22.2478 14.8829 22.2011 14.7695 22.2011 14.6362V13.8562C21.9078 14.2829 21.4944 14.6362 20.9611 14.9162C20.4278 15.1829 19.7611 15.3162 18.9611 15.3162ZM19.6411 13.3962C20.3744 13.3962 20.9744 13.1562 21.4411 12.6762C21.9078 12.1962 22.1411 11.5029 22.1411 10.5962V10.1962L20.1411 10.5162C18.6078 10.7562 17.8411 11.2695 17.8411 12.0562C17.8411 12.4829 18.0144 12.8162 18.3611 13.0562C18.7211 13.2829 19.1478 13.3962 19.6411 13.3962ZM31.3464 15.3162C30.3331 15.3162 29.4864 15.1629 28.8064 14.8562C28.1264 14.5495 27.6197 14.1962 27.2864 13.7962C26.9664 13.3829 26.8064 13.0295 26.8064 12.7362C26.8064 12.6029 26.8464 12.4962 26.9264 12.4162C27.0197 12.3362 27.1264 12.2962 27.2464 12.2962H28.8864C28.9931 12.2962 29.0864 12.3495 29.1664 12.4562C29.2331 12.5095 29.3797 12.6362 29.6064 12.8362C29.8464 13.0362 30.1131 13.1962 30.4064 13.3162C30.7131 13.4229 31.0464 13.4762 31.4064 13.4762C31.9397 13.4762 32.3731 13.3762 32.7064 13.1762C33.0397 12.9629 33.2064 12.6629 33.2064 12.2762C33.2064 12.0095 33.1264 11.7962 32.9664 11.6362C32.8197 11.4629 32.5464 11.3095 32.1464 11.1762C31.7597 11.0295 31.1731 10.8695 30.3864 10.6962C29.2531 10.4562 28.4131 10.0895 27.8664 9.59621C27.3331 9.10288 27.0664 8.44954 27.0664 7.63621C27.0664 7.10288 27.2264 6.60288 27.5464 6.13621C27.8664 5.65621 28.3397 5.26954 28.9664 4.97621C29.6064 4.66954 30.3664 4.51621 31.2464 4.51621C32.1531 4.51621 32.9331 4.66288 33.5864 4.95621C34.2397 5.23621 34.7331 5.57621 35.0664 5.97621C35.4131 6.37621 35.5864 6.72954 35.5864 7.03621C35.5864 7.15621 35.5397 7.26288 35.4464 7.35621C35.3664 7.43621 35.2664 7.47621 35.1464 7.47621H33.6464C33.4997 7.47621 33.3864 7.42288 33.3064 7.31621C33.2131 7.24954 33.0597 7.12954 32.8464 6.95621C32.6464 6.76954 32.4197 6.62288 32.1664 6.51621C31.9131 6.40954 31.6064 6.35621 31.2464 6.35621C30.7531 6.35621 30.3731 6.46288 30.1064 6.67621C29.8397 6.88954 29.7064 7.16954 29.7064 7.51621C29.7064 7.75621 29.7664 7.95621 29.8864 8.11621C30.0197 8.27621 30.2797 8.42954 30.6664 8.57621C31.0531 8.70954 31.6331 8.84954 32.4064 8.99621C34.8064 9.46288 36.0064 10.5095 36.0064 12.1362C36.0064 13.0829 35.5931 13.8495 34.7664 14.4362C33.9531 15.0229 32.8131 15.3162 31.3464 15.3162ZM38.5505 15.1162C38.4171 15.1162 38.3038 15.0695 38.2105 14.9762C38.1171 14.8829 38.0705 14.7695 38.0705 14.6362V1.39621C38.0705 1.24954 38.1171 1.13621 38.2105 1.05621C38.3038 0.962877 38.4171 0.91621 38.5505 0.91621H40.2305C40.3771 0.91621 40.4905 0.962877 40.5705 1.05621C40.6638 1.13621 40.7105 1.24954 40.7105 1.39621V14.6362C40.7105 14.7695 40.6638 14.8829 40.5705 14.9762C40.4905 15.0695 40.3771 15.1162 40.2305 15.1162H38.5505ZM47.863 15.3162C46.3696 15.3162 45.183 14.8895 44.303 14.0362C43.4363 13.1829 42.9763 11.9695 42.923 10.3962L42.903 9.89621C42.903 8.22954 43.3363 6.91621 44.203 5.95621C45.083 4.99621 46.2963 4.51621 47.843 4.51621C49.4296 4.51621 50.6496 4.99621 51.503 5.95621C52.3696 6.91621 52.803 8.19621 52.803 9.79621V10.2162C52.803 10.3495 52.7563 10.4629 52.663 10.5562C52.5696 10.6495 52.4496 10.6962 52.303 10.6962H45.663V10.8562C45.6896 11.6029 45.8896 12.2229 46.263 12.7162C46.6496 13.1962 47.1763 13.4362 47.843 13.4362C48.603 13.4362 49.223 13.1295 49.703 12.5162C49.823 12.3695 49.9163 12.2829 49.983 12.2562C50.0496 12.2162 50.163 12.1962 50.323 12.1962H52.083C52.203 12.1962 52.303 12.2295 52.383 12.2962C52.4763 12.3629 52.523 12.4562 52.523 12.5762C52.523 12.8962 52.3296 13.2762 51.943 13.7162C51.5696 14.1429 51.0296 14.5162 50.323 14.8362C49.6163 15.1562 48.7963 15.3162 47.863 15.3162ZM50.043 8.99621V8.95621C50.043 8.16954 49.843 7.54288 49.443 7.07621C49.0563 6.59621 48.523 6.35621 47.843 6.35621C47.163 6.35621 46.6296 6.59621 46.243 7.07621C45.8563 7.54288 45.663 8.16954 45.663 8.95621V8.99621H50.043ZM58.8855 15.3162C57.8721 15.3162 57.0255 15.1629 56.3455 14.8562C55.6655 14.5495 55.1588 14.1962 54.8255 13.7962C54.5055 13.3829 54.3455 13.0295 54.3455 12.7362C54.3455 12.6029 54.3855 12.4962 54.4655 12.4162C54.5588 12.3362 54.6655 12.2962 54.7855 12.2962H56.4255C56.5321 12.2962 56.6255 12.3495 56.7055 12.4562C56.7721 12.5095 56.9188 12.6362 57.1455 12.8362C57.3855 13.0362 57.6521 13.1962 57.9455 13.3162C58.2521 13.4229 58.5855 13.4762 58.9455 13.4762C59.4788 13.4762 59.9121 13.3762 60.2455 13.1762C60.5788 12.9629 60.7455 12.6629 60.7455 12.2762C60.7455 12.0095 60.6655 11.7962 60.5055 11.6362C60.3588 11.4629 60.0855 11.3095 59.6855 11.1762C59.2988 11.0295 58.7121 10.8695 57.9255 10.6962C56.7921 10.4562 55.9521 10.0895 55.4055 9.59621C54.8721 9.10288 54.6055 8.44954 54.6055 7.63621C54.6055 7.10288 54.7655 6.60288 55.0855 6.13621C55.4055 5.65621 55.8788 5.26954 56.5055 4.97621C57.1455 4.66954 57.9055 4.51621 58.7855 4.51621C59.6921 4.51621 60.4721 4.66288 61.1255 4.95621C61.7788 5.23621 62.2721 5.57621 62.6055 5.97621C62.9521 6.37621 63.1255 6.72954 63.1255 7.03621C63.1255 7.15621 63.0788 7.26288 62.9855 7.35621C62.9055 7.43621 62.8055 7.47621 62.6855 7.47621H61.1855C61.0388 7.47621 60.9255 7.42288 60.8455 7.31621C60.7521 7.24954 60.5988 7.12954 60.3855 6.95621C60.1855 6.76954 59.9588 6.62288 59.7055 6.51621C59.4521 6.40954 59.1455 6.35621 58.7855 6.35621C58.2921 6.35621 57.9121 6.46288 57.6455 6.67621C57.3788 6.88954 57.2455 7.16954 57.2455 7.51621C57.2455 7.75621 57.3055 7.95621 57.4255 8.11621C57.5588 8.27621 57.8188 8.42954 58.2055 8.57621C58.5921 8.70954 59.1721 8.84954 59.9455 8.99621C62.3455 9.46288 63.5455 10.5095 63.5455 12.1362C63.5455 13.0829 63.1321 13.8495 62.3055 14.4362C61.4921 15.0229 60.3521 15.3162 58.8855 15.3162ZM69.6295 15.1162C69.4029 15.1162 69.2162 15.0629 69.0695 14.9562C68.9362 14.8362 68.8429 14.6895 68.7895 14.5162L64.7495 1.71621L64.7095 1.53621C64.7095 1.42954 64.7495 1.33621 64.8295 1.25621C64.9229 1.16288 65.0295 1.11621 65.1495 1.11621H67.7695C67.9695 1.11621 68.1295 1.17621 68.2495 1.29621C68.3829 1.40288 68.4695 1.52288 68.5095 1.65621L71.2295 10.6962L73.9695 1.65621C74.0095 1.50954 74.0895 1.38288 74.2095 1.27621C74.3429 1.16954 74.5095 1.11621 74.7095 1.11621H77.3295C77.4495 1.11621 77.5495 1.16288 77.6295 1.25621C77.7095 1.33621 77.7495 1.42954 77.7495 1.53621C77.7495 1.60288 77.7429 1.66288 77.7295 1.71621L73.6695 14.5162C73.6295 14.6895 73.5362 14.8362 73.3895 14.9562C73.2562 15.0629 73.0762 15.1162 72.8495 15.1162H69.6295ZM80.0748 15.1162C79.9415 15.1162 79.8215 15.0695 79.7148 14.9762C79.6215 14.8695 79.5748 14.7495 79.5748 14.6162V1.63621C79.5748 1.48954 79.6215 1.36954 79.7148 1.27621C79.8082 1.16954 79.9282 1.11621 80.0748 1.11621H85.7348C87.4682 1.11621 88.8282 1.50954 89.8148 2.29621C90.8015 3.08288 91.2948 4.23621 91.2948 5.75621C91.2948 7.27621 90.8015 8.41621 89.8148 9.17621C88.8282 9.92288 87.4682 10.2962 85.7348 10.2962H83.4548V14.6162C83.4548 14.7495 83.4082 14.8695 83.3148 14.9762C83.2215 15.0695 83.1015 15.1162 82.9548 15.1162H80.0748ZM85.6348 7.43621C86.1815 7.43621 86.6082 7.29621 86.9148 7.01621C87.2348 6.72288 87.3948 6.29621 87.3948 5.73621C87.3948 5.21621 87.2482 4.79621 86.9548 4.47621C86.6748 4.15621 86.2348 3.99621 85.6348 3.99621H83.3948V7.43621H85.6348ZM93.6491 15.1162C93.5157 15.1162 93.3957 15.0695 93.2891 14.9762C93.1957 14.8695 93.1491 14.7495 93.1491 14.6162V1.63621C93.1491 1.48954 93.1957 1.36954 93.2891 1.27621C93.3824 1.16954 93.5024 1.11621 93.6491 1.11621H95.9091C96.2157 1.11621 96.4424 1.24288 96.5891 1.49621L101.309 8.95621V1.63621C101.309 1.48954 101.356 1.36954 101.449 1.27621C101.542 1.16954 101.662 1.11621 101.809 1.11621H104.349C104.496 1.11621 104.616 1.16954 104.709 1.27621C104.802 1.36954 104.849 1.48954 104.849 1.63621V14.5962C104.849 14.7429 104.802 14.8695 104.709 14.9762C104.616 15.0695 104.496 15.1162 104.349 15.1162H102.089C101.782 15.1162 101.556 14.9895 101.409 14.7362L96.7091 7.57621V14.6162C96.7091 14.7629 96.6557 14.8829 96.5491 14.9762C96.4557 15.0695 96.3357 15.1162 96.1891 15.1162H93.6491Z" fill="#0B132A"/>
</g>
<defs>
<filter id="filter0_d" x="0.560059" y="0.91626" width="108.289" height="22.4" filterUnits="userSpaceOnUse" color-interpolation-filters="sRGB">
<feFlood flood-opacity="0" result="BackgroundImageFix"/>
<feColorMatrix in="SourceAlpha" type="matrix" values="0 0 0 0 0 0 0 0 0 0 0 0 0 0 0 0 0 0 127 0"/>
<feOffset dy="4"/>
<feGaussianBlur stdDeviation="2"/>
<feColorMatrix type="matrix" values="0 0 0 0 0 0 0 0 0 0 0 0 0 0 0 0 0 0 0.25 0"/>
<feBlend mode="normal" in2="BackgroundImageFix" result="effect1_dropShadow"/>
<feBlend mode="normal" in="SourceGraphic" in2="effect1_dropShadow" result="shape"/>
</filter>
</defs>
</svg>
